<?xml version="1.0" encoding="UTF-8"?><svg id="Layer_1" xmlns="http://www.w3.org/2000/svg" viewBox="0 0 798.221 815.71"><defs><style>.cls-1{fill:#d97706;}.cls-1,.cls-2,.cls-3{stroke:#000;stroke-miterlimit:10;stroke-width:15px;}.cls-2{fill:#fbbf24;}.cls-3{fill:#fff;}</style></defs><path class="cls-1" d="m230.6113,316.7866l88.5362-88.5362-22.5708-22.5708c5.442-15.4643,8.405-32.1092,8.405-49.4386,0-82.1499-66.5911-148.7409-148.7409-148.7409S7.5,74.091,7.5,156.2409s66.591,148.7409,148.7409,148.7409c18.628,0,36.4651-3.4234,52.8974-9.6682l21.473,21.473Zm-74.3704-74.3704c-47.5144,0-86.1753-38.6608-86.1753-86.1753,0-47.5144,38.6608-86.1753,86.1753-86.1753,47.5144,0,86.1753,38.6608,86.1753,86.1753s-38.6608,86.1753-86.1753,86.1753Z"/><path class="cls-1" d="m783.0774,692.1802L319.1475,228.2503l-88.5362,88.5362,302.2037,302.2037c21.2132,18.1677,57.8437,44.7875,109.7849,61.3851,71.0415,22.7125,110.9181,17.896,140.4775,11.8048Z"/><path class="cls-2" d="m209.1383,520.3964c-16.4323-6.2447-34.2695-9.6682-52.8974-9.6682-82.1499,0-148.7409,66.591-148.7409,148.7409s66.591,148.7409,148.7409,148.7409,148.7409-66.591,148.7409-148.7409c0-17.3295-2.963-33.9743-8.405-49.4386l22.5708-22.5708-88.5362-88.5362-21.473,21.473Zm33.2778,139.0727c0,47.5144-38.6608,86.1753-86.1753,86.1753s-86.1753-38.6608-86.1753-86.1753,38.6608-86.1753,86.1753-86.1753,86.1753,38.6608,86.1753,86.1753Z"/><path class="cls-2" d="m783.0774,123.5297l-463.9299,463.9299-88.5362-88.5362,302.2037-302.2037c21.2132-18.1677,57.8437-44.7875,109.7849-61.3851,71.0415-22.7125,110.9181-17.896,140.4775-11.8048Z"/><circle class="cls-3" cx="410.635" cy="407.4359" r="26.5609"/></svg>